<mxfile host="app.diagrams.net" agent="Mozilla/5.0 (Windows NT 10.0; Win64; x64) AppleWebKit/537.36 (KHTML, like Gecko) Chrome/134.0.0.0 Safari/537.36" version="26.1.3">
  <diagram name="Página-1" id="KHgy2yHSPSF7O0yUR2nX">
    <mxGraphModel dx="1032" dy="1704" grid="1" gridSize="10" guides="1" tooltips="1" connect="1" arrows="1" fold="1" page="1" pageScale="1" pageWidth="827" pageHeight="1169" math="0" shadow="0">
      <root>
        <mxCell id="0" />
        <mxCell id="1" parent="0" />
        <mxCell id="33EWr6aBNREIfTe9eXjG-18" style="edgeStyle=orthogonalEdgeStyle;rounded=0;orthogonalLoop=1;jettySize=auto;html=1;strokeColor=default;endArrow=ERmany;endFill=0;startArrow=ERone;startFill=0;" parent="1" source="33EWr6aBNREIfTe9eXjG-5" target="33EWr6aBNREIfTe9eXjG-8" edge="1">
          <mxGeometry relative="1" as="geometry" />
        </mxCell>
        <mxCell id="33EWr6aBNREIfTe9eXjG-5" value="&lt;font style=&quot;font-size: 20px;&quot;&gt;PROFESORES&lt;/font&gt;" style="rounded=0;whiteSpace=wrap;html=1;" parent="1" vertex="1">
          <mxGeometry x="160" y="-310" width="190" height="80" as="geometry" />
        </mxCell>
        <mxCell id="33EWr6aBNREIfTe9eXjG-24" style="edgeStyle=orthogonalEdgeStyle;rounded=0;orthogonalLoop=1;jettySize=auto;html=1;exitX=0.25;exitY=1;exitDx=0;exitDy=0;endArrow=ERmany;endFill=0;startArrow=ERone;startFill=0;entryX=0.25;entryY=0;entryDx=0;entryDy=0;" parent="1" source="33EWr6aBNREIfTe9eXjG-9" target="33EWr6aBNREIfTe9eXjG-6" edge="1">
          <mxGeometry relative="1" as="geometry">
            <mxPoint x="540" y="-190" as="targetPoint" />
          </mxGeometry>
        </mxCell>
        <mxCell id="33EWr6aBNREIfTe9eXjG-6" value="&lt;font style=&quot;font-size: 20px;&quot;&gt;CURXALU&lt;/font&gt;&lt;span style=&quot;color: rgba(0, 0, 0, 0); font-family: monospace; font-size: 0px; text-align: start; text-wrap-mode: nowrap;&quot;&gt;%3CmxGraphModel%3E%3Croot%3E%3CmxCell%20id%3D%220%22%2F%3E%3CmxCell%20id%3D%221%22%20parent%3D%220%22%2F%3E%3CmxCell%20id%3D%222%22%20value%3D%22%26lt%3Bfont%20style%3D%26quot%3Bfont-size%3A%2020px%3B%26quot%3B%26gt%3BCURSOS%26lt%3B%2Ffont%26gt%3B%22%20style%3D%22rounded%3D0%3BwhiteSpace%3Dwrap%3Bhtml%3D1%3B%22%20vertex%3D%221%22%20parent%3D%221%22%3E%3CmxGeometry%20x%3D%22150%22%20y%3D%22-130%22%20width%3D%22190%22%20height%3D%2280%22%20as%3D%22geometry%22%2F%3E%3C%2FmxCell%3E%3C%2Froot%3E%3C%2FmxGraphModel%3E&lt;/span&gt;" style="rounded=0;whiteSpace=wrap;html=1;" parent="1" vertex="1">
          <mxGeometry x="570" y="-120" width="190" height="80" as="geometry" />
        </mxCell>
        <mxCell id="33EWr6aBNREIfTe9eXjG-8" value="&lt;font style=&quot;font-size: 20px;&quot;&gt;CURSOS&lt;/font&gt;" style="rounded=0;whiteSpace=wrap;html=1;" parent="1" vertex="1">
          <mxGeometry x="160" y="-120" width="190" height="80" as="geometry" />
        </mxCell>
        <mxCell id="33EWr6aBNREIfTe9eXjG-9" value="&lt;font style=&quot;font-size: 20px;&quot;&gt;ALUMNOS&lt;/font&gt;" style="rounded=0;whiteSpace=wrap;html=1;" parent="1" vertex="1">
          <mxGeometry x="570" y="-310" width="190" height="80" as="geometry" />
        </mxCell>
        <mxCell id="33EWr6aBNREIfTe9eXjG-12" value="&lt;u&gt;&lt;font style=&quot;font-size: 19px;&quot;&gt;Legajo PR&lt;/font&gt;&lt;/u&gt;" style="text;html=1;align=center;verticalAlign=middle;resizable=0;points=[];autosize=1;strokeColor=none;fillColor=none;strokeWidth=4;" parent="1" vertex="1">
          <mxGeometry x="190" y="-350" width="110" height="40" as="geometry" />
        </mxCell>
        <mxCell id="33EWr6aBNREIfTe9eXjG-13" value="&lt;span style=&quot;font-size: 19px;&quot;&gt;&lt;u&gt;CodCur&amp;nbsp; CU&lt;/u&gt;&lt;/span&gt;" style="text;html=1;align=center;verticalAlign=middle;resizable=0;points=[];autosize=1;strokeColor=none;fillColor=none;strokeWidth=4;" parent="1" vertex="1">
          <mxGeometry x="25" y="-100" width="130" height="40" as="geometry" />
        </mxCell>
        <mxCell id="33EWr6aBNREIfTe9eXjG-14" value="&lt;span style=&quot;font-size: 19px;&quot;&gt;&lt;u&gt;Dni AL&lt;/u&gt;&lt;/span&gt;" style="text;html=1;align=center;verticalAlign=middle;resizable=0;points=[];autosize=1;strokeColor=none;fillColor=none;strokeWidth=4;" parent="1" vertex="1">
          <mxGeometry x="625" y="-360" width="80" height="40" as="geometry" />
        </mxCell>
        <mxCell id="33EWr6aBNREIfTe9eXjG-15" value="&lt;span style=&quot;font-size: 19px;&quot;&gt;&lt;u&gt;CodCu&amp;nbsp; CXU&lt;/u&gt;&lt;/span&gt;&lt;div&gt;&lt;span style=&quot;font-size: 19px;&quot;&gt;&lt;u&gt;Dni CXU&lt;/u&gt;&lt;/span&gt;&lt;/div&gt;" style="text;html=1;align=center;verticalAlign=middle;resizable=0;points=[];autosize=1;strokeColor=none;fillColor=none;strokeWidth=4;" parent="1" vertex="1">
          <mxGeometry x="640" y="-170" width="130" height="60" as="geometry" />
        </mxCell>
        <mxCell id="33EWr6aBNREIfTe9eXjG-21" value="" style="edgeStyle=entityRelationEdgeStyle;fontSize=12;html=1;endArrow=ERoneToMany;startArrow=ERone;rounded=0;exitX=1;exitY=0.5;exitDx=0;exitDy=0;entryX=0;entryY=0.5;entryDx=0;entryDy=0;startFill=0;" parent="1" source="33EWr6aBNREIfTe9eXjG-8" target="33EWr6aBNREIfTe9eXjG-6" edge="1">
          <mxGeometry width="100" height="100" relative="1" as="geometry">
            <mxPoint x="360" y="-190" as="sourcePoint" />
            <mxPoint x="460" y="-290" as="targetPoint" />
          </mxGeometry>
        </mxCell>
        <mxCell id="33EWr6aBNREIfTe9eXjG-26" value="&lt;font style=&quot;font-size: 32px;&quot;&gt;&lt;b&gt;DER&lt;/b&gt;&lt;/font&gt;" style="whiteSpace=wrap;html=1;" parent="1" vertex="1">
          <mxGeometry x="414" y="-450" width="120" height="60" as="geometry" />
        </mxCell>
        <mxCell id="33EWr6aBNREIfTe9eXjG-30" value="" style="rounded=0;whiteSpace=wrap;html=1;strokeColor=#000000;fillColor=#000000;" parent="1" vertex="1">
          <mxGeometry y="40" width="820" height="10" as="geometry" />
        </mxCell>
        <mxCell id="33EWr6aBNREIfTe9eXjG-31" value="&lt;font style=&quot;font-size: 32px;&quot;&gt;&lt;b&gt;DD - DICCIONARIO DE DATOS&lt;/b&gt;&lt;/font&gt;" style="whiteSpace=wrap;html=1;" parent="1" vertex="1">
          <mxGeometry x="170" y="60" width="520" height="60" as="geometry" />
        </mxCell>
        <mxCell id="33EWr6aBNREIfTe9eXjG-58" value="&lt;font style=&quot;font-size: 15px;&quot;&gt;PROFESOR&lt;/font&gt;" style="rounded=0;whiteSpace=wrap;html=1;" parent="1" vertex="1">
          <mxGeometry x="40" y="160" width="120" height="40" as="geometry" />
        </mxCell>
        <mxCell id="33EWr6aBNREIfTe9eXjG-59" value="&lt;font style=&quot;font-size: 15px;&quot;&gt;CURSO&lt;/font&gt;" style="rounded=0;whiteSpace=wrap;html=1;" parent="1" vertex="1">
          <mxGeometry x="240" y="160" width="120" height="40" as="geometry" />
        </mxCell>
        <mxCell id="33EWr6aBNREIfTe9eXjG-60" value="&lt;font style=&quot;font-size: 15px;&quot;&gt;CURXALU&lt;/font&gt;" style="rounded=0;whiteSpace=wrap;html=1;" parent="1" vertex="1">
          <mxGeometry x="440" y="160" width="120" height="40" as="geometry" />
        </mxCell>
        <mxCell id="33EWr6aBNREIfTe9eXjG-61" value="&lt;font style=&quot;font-size: 15px;&quot;&gt;ALUMNOS&lt;/font&gt;" style="rounded=0;whiteSpace=wrap;html=1;" parent="1" vertex="1">
          <mxGeometry x="640" y="160" width="120" height="40" as="geometry" />
        </mxCell>
        <mxCell id="33EWr6aBNREIfTe9eXjG-62" value="&lt;div style=&quot;line-height: 140%;&quot;&gt;&lt;font style=&quot;font-size: 16px; line-height: 140%;&quot;&gt;&lt;u&gt;Legajo_PR&lt;/u&gt;&lt;/font&gt;&lt;div&gt;&lt;span style=&quot;background-color: transparent; color: light-dark(rgb(0, 0, 0), rgb(255, 255, 255));&quot;&gt;&lt;font style=&quot;font-size: 16px; line-height: 140%;&quot;&gt;Nombre_PR&lt;/font&gt;&lt;/span&gt;&lt;div&gt;&lt;font style=&quot;font-size: 16px; line-height: 140%;&quot;&gt;Dni_PR&lt;/font&gt;&lt;/div&gt;&lt;/div&gt;&lt;div&gt;&lt;font style=&quot;font-size: 16px; line-height: 140%;&quot;&gt;Dirección_PR&lt;/font&gt;&lt;/div&gt;&lt;div&gt;&lt;font style=&quot;font-size: 16px; line-height: 140%;&quot;&gt;Ciudad_PR&lt;/font&gt;&lt;/div&gt;&lt;div&gt;&lt;font style=&quot;font-size: 16px; line-height: 140%;&quot;&gt;Telefono_PR&lt;/font&gt;&lt;/div&gt;&lt;div&gt;&lt;font style=&quot;font-size: 16px; line-height: 140%;&quot;&gt;Titulo_PR&lt;/font&gt;&lt;/div&gt;&lt;div&gt;&lt;font style=&quot;font-size: 16px; line-height: 140%;&quot;&gt;Sueldo_PR&lt;/font&gt;&lt;/div&gt;&lt;div&gt;&lt;font style=&quot;font-size: 16px; line-height: 140%;&quot;&gt;CBU_PR&lt;/font&gt;&lt;/div&gt;&lt;/div&gt;" style="text;html=1;align=left;verticalAlign=middle;resizable=0;points=[];autosize=1;strokeColor=none;fillColor=none;" parent="1" vertex="1">
          <mxGeometry x="40" y="200" width="120" height="220" as="geometry" />
        </mxCell>
        <mxCell id="33EWr6aBNREIfTe9eXjG-63" value="&lt;div style=&quot;line-height: 160%;&quot;&gt;&lt;font style=&quot;font-size: 16px; line-height: 160%;&quot;&gt;&lt;u&gt;CodCur_CU&lt;/u&gt;&lt;/font&gt;&lt;div&gt;&lt;span style=&quot;background-color: transparent; color: light-dark(rgb(0, 0, 0), rgb(255, 255, 255));&quot;&gt;&lt;font style=&quot;font-size: 16px; line-height: 160%;&quot;&gt;Nombre_CU&lt;/font&gt;&lt;/span&gt;&lt;div&gt;&lt;font style=&quot;font-size: 16px; line-height: 160%;&quot;&gt;Legajo_PR_CU&lt;/font&gt;&lt;/div&gt;&lt;/div&gt;&lt;div&gt;&lt;font style=&quot;font-size: 16px; line-height: 160%;&quot;&gt;Duracion_CU&lt;/font&gt;&lt;/div&gt;&lt;div&gt;&lt;span style=&quot;font-size: 16px; background-color: transparent; color: light-dark(rgb(0, 0, 0), rgb(255, 255, 255)); line-height: 160%;&quot;&gt;DiaSem_CU&lt;/span&gt;&lt;/div&gt;&lt;div&gt;&lt;span style=&quot;font-size: 16px; line-height: 160%;&quot;&gt;HoraInicio_CU&lt;/span&gt;&lt;/div&gt;&lt;/div&gt;" style="text;html=1;align=left;verticalAlign=middle;resizable=0;points=[];autosize=1;strokeColor=none;fillColor=none;" parent="1" vertex="1">
          <mxGeometry x="240" y="205" width="130" height="170" as="geometry" />
        </mxCell>
        <mxCell id="33EWr6aBNREIfTe9eXjG-64" value="&lt;div style=&quot;line-height: 150%;&quot;&gt;&lt;div&gt;&lt;span style=&quot;font-size: 16px; line-height: 150%;&quot;&gt;&lt;u&gt;CodCur__CU_CXA&lt;/u&gt;&lt;/span&gt;&lt;/div&gt;&lt;div&gt;&lt;span style=&quot;font-size: 16px; line-height: 150%;&quot;&gt;&lt;u&gt;Dni_AL_CXA&lt;/u&gt;&lt;/span&gt;&lt;/div&gt;&lt;div&gt;&lt;span style=&quot;font-size: 16px; line-height: 150%;&quot;&gt;NOTA_1P_CXA&lt;/span&gt;&lt;/div&gt;&lt;div&gt;&lt;span style=&quot;font-size: 16px; line-height: 150%;&quot;&gt;NOTA_2P_CXP&lt;/span&gt;&lt;/div&gt;&lt;/div&gt;" style="text;html=1;align=left;verticalAlign=middle;resizable=0;points=[];autosize=1;strokeColor=none;fillColor=none;" parent="1" vertex="1">
          <mxGeometry x="440" y="205" width="160" height="110" as="geometry" />
        </mxCell>
        <mxCell id="33EWr6aBNREIfTe9eXjG-65" value="&lt;div style=&quot;line-height: 150%;&quot;&gt;&lt;div&gt;&lt;span style=&quot;font-size: 16px; line-height: 150%;&quot;&gt;&lt;u&gt;Dni_AL&lt;/u&gt;&lt;/span&gt;&lt;/div&gt;&lt;div&gt;&lt;span style=&quot;font-size: 16px; line-height: 150%;&quot;&gt;&lt;u&gt;Legajo_AL&lt;br&gt;&lt;/u&gt;&lt;/span&gt;&lt;div&gt;&lt;span style=&quot;font-size: 16px; line-height: 150%;&quot;&gt;Nombre_AL&lt;/span&gt;&lt;/div&gt;&lt;div&gt;&lt;span style=&quot;font-size: 16px; line-height: 150%;&quot;&gt;Telefono_AL&lt;/span&gt;&lt;/div&gt;&lt;div&gt;&lt;font style=&quot;font-size: 16px; line-height: 150%;&quot;&gt;Dirección_AL&lt;/font&gt;&lt;/div&gt;&lt;div&gt;&lt;br&gt;&lt;/div&gt;&lt;div&gt;&lt;/div&gt;&lt;/div&gt;&lt;/div&gt;" style="text;html=1;align=left;verticalAlign=middle;resizable=0;points=[];autosize=1;strokeColor=none;fillColor=none;" parent="1" vertex="1">
          <mxGeometry x="640" y="205" width="120" height="150" as="geometry" />
        </mxCell>
      </root>
    </mxGraphModel>
  </diagram>
</mxfile>
